<svg id="admin" xmlns="http://www.w3.org/2000/svg" viewBox="0 0 121.85 122.88"><defs><style>.cls-1{fill:#1a1a1a;fill-rule:evenodd;}</style></defs><title>customer-service</title><path class="cls-1" d="M42.18,72.75A47.21,47.21,0,0,1,38.28,65c-8.39-4.72-9.73-25.71-4.56-24.12,0-.79-.14-3-.14-4.52,0-34.07,54.74-34.09,54.74,0,0,1.56-.16,3.73-.14,4.52C93.34,39.26,92,60.25,83.62,65c-2.13,5.9-5.93,9.86-5.62,12.45,0,8.89-9.77,12.11-17,12.19-.66,0-1.33,0-2-.1a17.8,17.8,0,0,0,4.52-1.9h0c3.11-1.9,5.21-4.71,5.21-8.08s-2.09-6.2-5.2-8.09h0a18.68,18.68,0,0,0-9.4-2.57,19.54,19.54,0,0,0-7.51,1.35,12.78,12.78,0,0,0-4,2.58l-.37,0Zm58.25-41.14h-.37C96.63,17.08,87.81,7,77.3,2.83A44.05,44.05,0,0,0,58,.15a46.75,46.75,0,0,0-18.44,5.4A34.24,34.24,0,0,0,22.15,31.61h-.69c-3.3,0-6.64,2.71-6.64,6V59.28c0,3.3,3.34,6,6.64,6h1.95C25.54,73.93,34.17,81.85,43,81.85h1.73c1.51,2.22,4.44,3.79,9.32,3.79s10.08-2.75,10.08-6.13S59,73.39,54.05,73.39,46.1,75,44.64,77.32H43c-7.54,0-15-8-15.53-15.22V32A29.1,29.1,0,0,1,42.13,10.2,41.46,41.46,0,0,1,58.4,5.47,38.8,38.8,0,0,1,75.33,7.79c8.71,3.44,16.06,12,19.23,23.82h-.13V65.28h6c3.3,0,6.64-2.7,6.64-6V37.62c0-3.31-3.34-6-6.64-6ZM64.59,104.44h1.86a3,3,0,0,0,3-3v-5a3,3,0,0,0-3-3h-11a3.05,3.05,0,0,0-3,3v5a3.06,3.06,0,0,0,3,3H57.3l-3.64,18.43H68.07l-3.48-18.44ZM0,122.88c1.43-18.54-2.21-17.79,13.32-23.6a128.67,128.67,0,0,0,22.78-11l13.27,34.63ZM86.4,86.67a95.25,95.25,0,0,0,21.07,10c14.5,4.82,14.5,5.5,14.36,26.17H72.65L86.4,86.67Z"/></svg>