<svg aria-hidden="true" style="position: absolute; width: 0; height: 0; overflow: hidden;" version="1.1" xmlns="http://www.w3.org/2000/svg" xmlns:xlink="http://www.w3.org/1999/xlink">
<defs>
<symbol id="icon-user" viewBox="0 0 24 32">
<path d="M12 16c-6.625 0-12 5.375-12 12 0 2.211 1.789 4 4 4h16c2.211 0 4-1.789 4-4 0-6.625-5.375-12-12-12zM6 6c0-3.314 2.686-6 6-6s6 2.686 6 6c0 3.314-2.686 6-6 6s-6-2.686-6-6z"></path>
</symbol>
<symbol id="icon-bell" viewBox="0 0 32 32">
<path d="M32.047 25c0-9-8-7-8-14 0-0.58-0.056-1.076-0.158-1.498-0.526-3.532-2.88-6.366-5.93-7.23 0.027-0.123 0.041-0.251 0.041-0.382 0-1.040-0.9-1.891-2-1.891s-2 0.851-2 1.891c0 0.131 0.014 0.258 0.041 0.382-3.421 0.969-5.966 4.416-6.039 8.545-0.001 0.060-0.002 0.121-0.002 0.183 0 7-8 5-8 14 0 2.382 5.331 4.375 12.468 4.878 0.673 1.263 2.002 2.122 3.532 2.122s2.86-0.86 3.532-2.122c7.137-0.503 12.468-2.495 12.468-4.878 0-0.007-0.001-0.014-0.001-0.021l0.048 0.021zM25.82 26.691c-1.695 0.452-3.692 0.777-5.837 0.958-0.178-2.044-1.893-3.648-3.984-3.648s-3.805 1.604-3.984 3.648c-2.144-0.18-4.142-0.506-5.837-0.958-2.332-0.622-3.447-1.318-3.855-1.691 0.408-0.372 1.523-1.068 3.855-1.691 2.712-0.724 6.199-1.122 9.82-1.122s7.109 0.398 9.82 1.122c2.332 0.622 3.447 1.318 3.855 1.691-0.408 0.372-1.523 1.068-3.855 1.691z"></path>
</symbol>
<symbol id="icon-equalizer" viewBox="0 0 32 32">
<path d="M14 4v-0.5c0-0.825-0.675-1.5-1.5-1.5h-5c-0.825 0-1.5 0.675-1.5 1.5v0.5h-6v4h6v0.5c0 0.825 0.675 1.5 1.5 1.5h5c0.825 0 1.5-0.675 1.5-1.5v-0.5h18v-4h-18zM8 8v-4h4v4h-4zM26 13.5c0-0.825-0.675-1.5-1.5-1.5h-5c-0.825 0-1.5 0.675-1.5 1.5v0.5h-18v4h18v0.5c0 0.825 0.675 1.5 1.5 1.5h5c0.825 0 1.5-0.675 1.5-1.5v-0.5h6v-4h-6v-0.5zM20 18v-4h4v4h-4zM14 23.5c0-0.825-0.675-1.5-1.5-1.5h-5c-0.825 0-1.5 0.675-1.5 1.5v0.5h-6v4h6v0.5c0 0.825 0.675 1.5 1.5 1.5h5c0.825 0 1.5-0.675 1.5-1.5v-0.5h18v-4h-18v-0.5zM8 28v-4h4v4h-4z"></path>
</symbol>
<symbol id="icon-equalizer2" viewBox="0 0 32 32">
<path d="M28 14h0.5c0.825 0 1.5-0.675 1.5-1.5v-5c0-0.825-0.675-1.5-1.5-1.5h-0.5v-6h-4v6h-0.5c-0.825 0-1.5 0.675-1.5 1.5v5c0 0.825 0.675 1.5 1.5 1.5h0.5v18h4v-18zM24 8h4v4h-4v-4zM18.5 26c0.825 0 1.5-0.675 1.5-1.5v-5c0-0.825-0.675-1.5-1.5-1.5h-0.5v-18h-4v18h-0.5c-0.825 0-1.5 0.675-1.5 1.5v5c0 0.825 0.675 1.5 1.5 1.5h0.5v6h4v-6h0.5zM14 20h4v4h-4v-4zM8.5 14c0.825 0 1.5-0.675 1.5-1.5v-5c0-0.825-0.675-1.5-1.5-1.5h-0.5v-6h-4v6h-0.5c-0.825 0-1.5 0.675-1.5 1.5v5c0 0.825 0.675 1.5 1.5 1.5h0.5v18h4v-18h0.5zM4 8h4v4h-4v-4z"></path>
</symbol>
<symbol id="icon-meter" viewBox="0 0 32 32">
<path d="M16 2c8.837 0 16 7.163 16 16 0 6.025-3.331 11.271-8.25 14h-15.499c-4.92-2.729-8.25-7.975-8.25-14 0-8.837 7.163-16 16-16zM25.060 27.060c2.42-2.42 3.753-5.637 3.753-9.060h-2.813v-2h2.657c-0.219-1.406-0.668-2.755-1.33-4h-3.327v-2h2.009c-0.295-0.368-0.611-0.722-0.949-1.060-1.444-1.444-3.173-2.501-5.060-3.119v2.178h-2v-2.658c-0.656-0.102-1.324-0.155-2-0.155s-1.344 0.053-2 0.155v2.658h-2v-2.178c-1.887 0.617-3.615 1.674-5.060 3.119-0.338 0.338-0.654 0.692-0.949 1.060h2.009v2h-3.327c-0.662 1.245-1.111 2.594-1.33 4h2.657v2h-2.813c0 3.422 1.333 6.64 3.753 9.060 0.335 0.335 0.685 0.648 1.049 0.94h6.011l1.143-16h1.714l1.143 16h6.011c0.364-0.292 0.714-0.606 1.049-0.94z"></path>
</symbol>
<symbol id="icon-dashboard" viewBox="0 0 28 28">
<path d="M6 18c0-1.109-0.891-2-2-2s-2 0.891-2 2 0.891 2 2 2 2-0.891 2-2zM9 11c0-1.109-0.891-2-2-2s-2 0.891-2 2 0.891 2 2 2 2-0.891 2-2zM15.687 18.516l1.578-5.969c0.125-0.531-0.187-1.078-0.719-1.219v0c-0.531-0.141-1.078 0.187-1.219 0.719l-1.578 5.969c-1.234 0.094-2.312 0.953-2.656 2.219-0.422 1.609 0.547 3.25 2.141 3.672 1.609 0.422 3.25-0.547 3.672-2.141 0.328-1.266-0.203-2.547-1.219-3.25zM26 18c0-1.109-0.891-2-2-2s-2 0.891-2 2 0.891 2 2 2 2-0.891 2-2zM16 8c0-1.109-0.891-2-2-2s-2 0.891-2 2 0.891 2 2 2 2-0.891 2-2zM23 11c0-1.109-0.891-2-2-2s-2 0.891-2 2 0.891 2 2 2 2-0.891 2-2zM28 18c0 2.688-0.766 5.281-2.203 7.547-0.187 0.281-0.5 0.453-0.844 0.453h-21.906c-0.344 0-0.656-0.172-0.844-0.453-1.437-2.25-2.203-4.859-2.203-7.547 0-7.719 6.281-14 14-14s14 6.281 14 14z"></path>
</symbol>
<symbol id="icon-message" viewBox="0 0 24 24">
  <path fill="none" stroke="currentColor" stroke-linecap="round" stroke-linejoin="round" stroke-width="2" d="M8 9h8m-8 4h6m4-9a3 3 0 0 1 3 3v8a3 3 0 0 1-3 3h-5l-5 3v-3H6a3 3 0 0 1-3-3V7a3 3 0 0 1 3-3h12z"/>
</symbol>
<symbol id="icon-message-filled" viewBox="0 0 15 15">
   <path fill="currentColor" fill-rule="evenodd" d="M0 1.5C0 .67.671 0 1.5 0h12c.829 0 1.5.67 1.5 1.5v8.994c0 .829-.671 1.499-1.5 1.499H7.667L3.8 14.89a.5.5 0 0 1-.8-.4v-2.498H1.5c-.829 0-1.5-.67-1.5-1.5zm4 2.497h7v1H4zm0 2.998h5v1H4z" clip-rule="evenodd"/>
</symbol>
<symbol id="icon-supervisor_account" viewBox="0 0 24 24">
<path d="M9 12.984q1.031 0 2.391 0.281-2.391 1.313-2.391 3.469v2.25h-6.984v-2.484q0-1.078 1.289-1.922t2.836-1.219 2.859-0.375zM16.5 14.016q1.734 0 3.609 0.75t1.875 1.969v2.25h-10.969v-2.25q0-1.219 1.875-1.969t3.609-0.75zM9 11.016q-1.219 0-2.109-0.891t-0.891-2.109 0.891-2.109 2.109-0.891 2.109 0.891 0.891 2.109-0.891 2.109-2.109 0.891zM16.5 12q-1.031 0-1.758-0.727t-0.727-1.758 0.727-1.781 1.758-0.75 1.758 0.75 0.727 1.781-0.727 1.758-1.758 0.727z"></path>
</symbol>
<symbol id="icon-icon-dashboard" viewBox="0 0 24 24">
<path d="M12 19.219q1.594 0 3.352-0.938t2.648-2.297q-0.047-1.313-2.109-2.203t-3.891-0.891-3.891 0.867-2.109 2.227q0.891 1.359 2.648 2.297t3.352 0.938zM12 5.016q-1.219 0-2.109 0.891t-0.891 2.109 0.891 2.109 2.109 0.891 2.109-0.891 0.891-2.109-0.891-2.109-2.109-0.891zM12 2.016q4.125 0 7.055 2.93t2.93 7.055-2.93 7.055-7.055 2.93-7.055-2.93-2.93-7.055 2.93-7.055 7.055-2.93z"></path>
</symbol>
<symbol id="icon-account_box" viewBox="0 0 24 24">
<path d="M6 17.016v0.984h12v-0.984q0-1.359-2.063-2.227t-3.938-0.867-3.938 0.867-2.063 2.227zM15 9q0-1.219-0.891-2.109t-2.109-0.891-2.109 0.891-0.891 2.109 0.891 2.109 2.109 0.891 2.109-0.891 0.891-2.109zM3 5.016q0-0.844 0.586-1.43t1.43-0.586h13.969q0.797 0 1.406 0.609t0.609 1.406v13.969q0 0.797-0.609 1.406t-1.406 0.609h-13.969q-0.844 0-1.43-0.586t-0.586-1.43v-13.969z"></path>
</symbol>
<symbol id="icon-devices" viewBox="0 0 24 24">
<path d="M21.984 17.016v-7.031h-3.984v7.031h3.984zM23.016 8.016q0.422 0 0.703 0.281t0.281 0.703v9.984q0 0.422-0.281 0.727t-0.703 0.305h-6q-0.422 0-0.727-0.305t-0.305-0.727v-9.984q0-0.422 0.305-0.703t0.727-0.281h6zM3.984 6v11.016h10.031v3h-14.016v-3h2.016v-11.016q0-0.797 0.586-1.406t1.383-0.609h18v2.016h-18z"></path>
</symbol>
<symbol id="icon-login" viewBox="0 0 20 20">
<path d="M14 10l-6-5v3h-7v4h7v3l6-5zM17 17h-8v2h8c1.1 0 2-0.9 2-2v-14c0-1.1-0.9-2-2-2h-8v2h8v14z"></path>
</symbol>

<symbol id="icon-logout" viewBox="0 0 24 24">
   <g fill="none" stroke="currentColor" stroke-linecap="round" stroke-linejoin="round" stroke-width="2"><path d="M14 8V6a2 2 0 0 0-2-2H5a2 2 0 0 0-2 2v12a2 2 0 0 0 2 2h7a2 2 0 0 0 2-2v-2"/>
   <path d="M9 12h12l-3-3m0 6l3-3"/></g>
</symbol>

<symbol id="icon-home" viewBox="0 0 24 24">
<path d="M12 3c0 0-6.186 5.34-9.643 8.232-0.203 0.184-0.357 0.452-0.357 0.768 0 0.553 0.447 1 1 1h2v7c0 0.553 0.447 1 1 1h3c0.553 0 1-0.448 1-1v-4h4v4c0 0.552 0.447 1 1 1h3c0.553 0 1-0.447 1-1v-7h2c0.553 0 1-0.447 1-1 0-0.316-0.154-0.584-0.383-0.768-3.433-2.892-9.617-8.232-9.617-8.232z"></path>
</symbol>
<symbol id="icon-plus" viewBox="0 0 32 32">
<path d="M31 12h-11v-11c0-0.552-0.448-1-1-1h-6c-0.552 0-1 0.448-1 1v11h-11c-0.552 0-1 0.448-1 1v6c0 0.552 0.448 1 1 1h11v11c0 0.552 0.448 1 1 1h6c0.552 0 1-0.448 1-1v-11h11c0.552 0 1-0.448 1-1v-6c0-0.552-0.448-1-1-1z"></path>
</symbol>
<symbol id="icon-search" viewBox="0 0 32 32">
<path d="M31.008 27.231l-7.58-6.447c-0.784-0.705-1.622-1.029-2.299-0.998 1.789-2.096 2.87-4.815 2.87-7.787 0-6.627-5.373-12-12-12s-12 5.373-12 12 5.373 12 12 12c2.972 0 5.691-1.081 7.787-2.87-0.031 0.677 0.293 1.515 0.998 2.299l6.447 7.58c1.104 1.226 2.907 1.33 4.007 0.23s0.997-2.903-0.23-4.007zM12 20c-4.418 0-8-3.582-8-8s3.582-8 8-8 8 3.582 8 8-3.582 8-8 8z"></path>
</symbol>
<symbol id="icon-cloud-check" viewBox="0 0 32 32">
<path d="M27.883 16.078c0.076-0.347 0.117-0.708 0.117-1.078 0-2.761-2.239-5-5-5-0.445 0-0.875 0.058-1.285 0.167-0.775-2.417-3.040-4.167-5.715-4.167-2.73 0-5.033 1.823-5.76 4.318-0.711-0.207-1.462-0.318-2.24-0.318-4.418 0-8 3.582-8 8s3.582 8 8 8h19c2.761 0 5-2.239 5-5 0-2.46-1.777-4.505-4.117-4.922zM13 24l-5-5 2-2 3 3 7-7 2 2-9 9z"></path>
</symbol>
<symbol id="icon-cross" viewBox="0 0 32 32">
<path d="M31.708 25.708c-0-0-0-0-0-0l-9.708-9.708 9.708-9.708c0-0 0-0 0-0 0.105-0.105 0.18-0.227 0.229-0.357 0.133-0.356 0.057-0.771-0.229-1.057l-4.586-4.586c-0.286-0.286-0.702-0.361-1.057-0.229-0.13 0.048-0.252 0.124-0.357 0.228 0 0-0 0-0 0l-9.708 9.708-9.708-9.708c-0-0-0-0-0-0-0.105-0.104-0.227-0.18-0.357-0.228-0.356-0.133-0.771-0.057-1.057 0.229l-4.586 4.586c-0.286 0.286-0.361 0.702-0.229 1.057 0.049 0.13 0.124 0.252 0.229 0.357 0 0 0 0 0 0l9.708 9.708-9.708 9.708c-0 0-0 0-0 0-0.104 0.105-0.18 0.227-0.229 0.357-0.133 0.355-0.057 0.771 0.229 1.057l4.586 4.586c0.286 0.286 0.702 0.361 1.057 0.229 0.13-0.049 0.252-0.124 0.357-0.229 0-0 0-0 0-0l9.708-9.708 9.708 9.708c0 0 0 0 0 0 0.105 0.105 0.227 0.18 0.357 0.229 0.356 0.133 0.771 0.057 1.057-0.229l4.586-4.586c0.286-0.286 0.362-0.702 0.229-1.057-0.049-0.13-0.124-0.252-0.229-0.357z"></path>
</symbol>
<symbol id="icon-cross-small" viewBox="0 0 256 256">
 <path  d="M205.66 194.34a8 8 0 0 1-11.32 11.32L128 139.31l-66.34 66.35a8 8 0 0 1-11.32-11.32L116.69 128L50.34 61.66a8 8 0 0 1 11.32-11.32L128 116.69l66.34-66.35a8 8 0 0 1 11.32 11.32L139.31 128Z"/>
</symbol>
<symbol id="icon-export" viewBox="0 0 20 20">
<path d="M15 15h-13v-9h2.595c0 0 0.689-0.896 2.17-2h-5.765c-0.553 0-1 0.449-1 1v11c0 0.553 0.447 1 1 1h15c0.553 0 1-0.447 1-1v-3.746l-2 1.645v1.101zM13.361 8.050v3.551l6.639-5.201-6.639-4.999v3.131c-8.061 0-8.061 7.968-8.061 7.968 2.282-3.748 3.686-4.45 8.061-4.45z"></path>
</symbol>
<symbol id="icon-bin" viewBox="0 0 32 32">
<path d="M4 10v20c0 1.1 0.9 2 2 2h18c1.1 0 2-0.9 2-2v-20h-22zM10 28h-2v-14h2v14zM14 28h-2v-14h2v14zM18 28h-2v-14h2v14zM22 28h-2v-14h2v14z"></path>
<path d="M26.5 4h-6.5v-2.5c0-0.825-0.675-1.5-1.5-1.5h-7c-0.825 0-1.5 0.675-1.5 1.5v2.5h-6.5c-0.825 0-1.5 0.675-1.5 1.5v2.5h26v-2.5c0-0.825-0.675-1.5-1.5-1.5zM18 4h-6v-1.975h6v1.975z"></path>
</symbol>
<symbol id="icon-edit" viewBox="0 0 20 20">
<path d="M17.561 2.439c-1.442-1.443-2.525-1.227-2.525-1.227l-12.826 12.825-1.010 4.762 4.763-1.010 12.826-12.823c-0.001 0 0.216-1.083-1.228-2.527zM5.68 17.217l-1.624 0.35c-0.156-0.293-0.345-0.586-0.69-0.932s-0.639-0.533-0.932-0.691l0.35-1.623 0.47-0.469c0 0 0.883 0.018 1.881 1.016 0.997 0.996 1.016 1.881 1.016 1.881l-0.471 0.468z"></path>
</symbol>
<symbol id="icon-checkmark" viewBox="0 0 32 32">
<path d="M27 4l-15 15-7-7-5 5 12 12 20-20z"></path>
</symbol>
<symbol id="icon-loop" viewBox="0 0 20 20">
<path d="M20 7v7c0 1.103-0.896 2-2 2h-16c-1.104 0-2-0.897-2-2v-7c0-1.104 0.896-2 2-2h7v-2l4 3.5-4 3.5v-2h-6v5h14v-5h-3v-3h4c1.104 0 2 0.896 2 2z"></path>
</symbol>
<symbol id="icon-loop2" viewBox="0 0 32 32">
<path d="M27.802 5.197c-2.925-3.194-7.13-5.197-11.803-5.197-8.837 0-16 7.163-16 16h3c0-7.18 5.82-13 13-13 3.844 0 7.298 1.669 9.678 4.322l-4.678 4.678h11v-11l-4.198 4.197z"></path>
<path d="M29 16c0 7.18-5.82 13-13 13-3.844 0-7.298-1.669-9.678-4.322l4.678-4.678h-11v11l4.197-4.197c2.925 3.194 7.13 5.197 11.803 5.197 8.837 0 16-7.163 16-16h-3z"></path>
</symbol>
<symbol id="icon-checkmark2" viewBox="0 0 32 32">
<path d="M12.42 28.678l-12.433-12.238 6.168-6.071 6.265 6.167 13.426-13.214 6.168 6.071-19.594 19.285zM3.372 16.441l9.048 8.905 16.208-15.953-2.782-2.739-13.426 13.214-6.265-6.167-2.782 2.739z"></path>
</symbol>
<symbol id="icon-check-circle" viewBox="0 0 24 24">
<path d="M21 11.080v0.92c-0.001 2.485-1.009 4.733-2.64 6.362s-3.88 2.634-6.365 2.632-4.734-1.009-6.362-2.64-2.634-3.879-2.633-6.365 1.009-4.733 2.64-6.362 3.88-2.634 6.365-2.633c1.33 0.001 2.586 0.289 3.649 0.775 0.502 0.23 1.096 0.008 1.325-0.494s0.008-1.096-0.494-1.325c-1.327-0.606-2.866-0.955-4.479-0.956-3.037-0.002-5.789 1.229-7.78 3.217s-3.224 4.74-3.226 7.777 1.229 5.789 3.217 7.78 4.739 3.225 7.776 3.226 5.789-1.229 7.78-3.217 3.225-4.739 3.227-7.777v-0.92c0-0.552-0.448-1-1-1s-1 0.448-1 1zM21.293 3.293l-9.293 9.302-2.293-2.292c-0.391-0.391-1.024-0.391-1.414 0s-0.391 1.024 0 1.414l3 3c0.391 0.391 1.024 0.39 1.415 0l10-10.010c0.39-0.391 0.39-1.024-0.001-1.414s-1.024-0.39-1.414 0.001z"></path>
</symbol>
<symbol id="icon-warning" viewBox="0 0 32 32">
<path d="M16 2.899l13.409 26.726h-26.819l13.409-26.726zM16 0c-0.69 0-1.379 0.465-1.903 1.395l-13.659 27.222c-1.046 1.86-0.156 3.383 1.978 3.383h27.166c2.134 0 3.025-1.522 1.978-3.383h0l-13.659-27.222c-0.523-0.93-1.213-1.395-1.903-1.395v0z"></path>
<path d="M18 26c0 1.105-0.895 2-2 2s-2-0.895-2-2c0-1.105 0.895-2 2-2s2 0.895 2 2z"></path>
<path d="M16 22c-1.105 0-2-0.895-2-2v-6c0-1.105 0.895-2 2-2s2 0.895 2 2v6c0 1.105-0.895 2-2 2z"></path>
</symbol>

<symbol id="icon-info" viewBox="0 0 32 32">
<path d="M14 9.5c0-0.825 0.675-1.5 1.5-1.5h1c0.825 0 1.5 0.675 1.5 1.5v1c0 0.825-0.675 1.5-1.5 1.5h-1c-0.825 0-1.5-0.675-1.5-1.5v-1z"></path>
<path d="M20 24h-8v-2h2v-6h-2v-2h6v8h2z"></path>
<path d="M16 0c-8.837 0-16 7.163-16 16s7.163 16 16 16 16-7.163 16-16-7.163-16-16-16zM16 29c-7.18 0-13-5.82-13-13s5.82-13 13-13 13 5.82 13 13-5.82 13-13 13z"></path>
</symbol>

<symbol id="icon-cancel-circle" viewBox="0 0 32 32">
<path d="M16 0c-8.837 0-16 7.163-16 16s7.163 16 16 16 16-7.163 16-16-7.163-16-16-16zM16 29c-7.18 0-13-5.82-13-13s5.82-13 13-13 13 5.82 13 13-5.82 13-13 13z"></path>
<path d="M21 8l-5 5-5-5-3 3 5 5-5 5 3 3 5-5 5 5 3-3-5-5 5-5z"></path>
</symbol>
<symbol id="icon-sign-out" viewBox="0 0 25 28">
<path d="M10 22.5c0 0.438 0.203 1.5-0.5 1.5h-5c-2.484 0-4.5-2.016-4.5-4.5v-11c0-2.484 2.016-4.5 4.5-4.5h5c0.266 0 0.5 0.234 0.5 0.5 0 0.438 0.203 1.5-0.5 1.5h-5c-1.375 0-2.5 1.125-2.5 2.5v11c0 1.375 1.125 2.5 2.5 2.5h4.5c0.391 0 1-0.078 1 0.5zM24.5 14c0 0.266-0.109 0.516-0.297 0.703l-8.5 8.5c-0.187 0.187-0.438 0.297-0.703 0.297-0.547 0-1-0.453-1-1v-4.5h-7c-0.547 0-1-0.453-1-1v-6c0-0.547 0.453-1 1-1h7v-4.5c0-0.547 0.453-1 1-1 0.266 0 0.516 0.109 0.703 0.297l8.5 8.5c0.187 0.187 0.297 0.438 0.297 0.703z"></path>
</symbol>
<symbol id="icon-switch" viewBox="0 0 32 32">
<path d="M20 4.581v4.249c1.131 0.494 2.172 1.2 3.071 2.099 1.889 1.889 2.929 4.4 2.929 7.071s-1.040 5.182-2.929 7.071c-1.889 1.889-4.4 2.929-7.071 2.929s-5.182-1.040-7.071-2.929c-1.889-1.889-2.929-4.4-2.929-7.071s1.040-5.182 2.929-7.071c0.899-0.899 1.94-1.606 3.071-2.099v-4.249c-5.783 1.721-10 7.077-10 13.419 0 7.732 6.268 14 14 14s14-6.268 14-14c0-6.342-4.217-11.698-10-13.419zM14 0h4v16h-4z"></path>
</symbol>

<symbol id="icon-camera" viewBox="0 0 32 32">
<path d="M9.5 19c0 3.59 2.91 6.5 6.5 6.5s6.5-2.91 6.5-6.5-2.91-6.5-6.5-6.5-6.5 2.91-6.5 6.5zM30 8h-7c-0.5-2-1-4-3-4h-8c-2 0-2.5 2-3 4h-7c-1.1 0-2 0.9-2 2v18c0 1.1 0.9 2 2 2h28c1.1 0 2-0.9 2-2v-18c0-1.1-0.9-2-2-2zM16 27.875c-4.902 0-8.875-3.973-8.875-8.875s3.973-8.875 8.875-8.875c4.902 0 8.875 3.973 8.875 8.875s-3.973 8.875-8.875 8.875zM30 14h-4v-2h4v2z"></path>
</symbol>

<symbol id="icon-notification" viewBox="0 0 16 16">
<path d="m13.58 11.6l-1.33-2.18V6.33A4.36 4.36 0 0 0 10 2.26a2.45 2.45 0 0 0 0-.38A1.94 1.94 0 0 0 8 0a1.94 1.94 0 0 0-2 1.88a1.64 1.64 0 0 0 0 .38a4.36 4.36 0 0 0-2.25 4.07v3.09L2.42 11.6a1.25 1.25 0 0 0 1.06 1.9h1.77A2.68 2.68 0 0 0 8 16a2.68 2.68 0 0 0 2.75-2.5h1.77a1.25 1.25 0 0 0 1.06-1.9zM7.25 1.88A.7.7 0 0 1 8 1.25a.7.7 0 0 1 .75.63a6 6 0 0 0-.75 0a5.9 5.9 0 0 0-.75 0zM8 14.75a1.44 1.44 0 0 1-1.5-1.25h3A1.44 1.44 0 0 1 8 14.75zm-4.52-2.5l1.34-2.17l.18-.31V6.33a4 4 0 0 1 .6-2.12A2.68 2.68 0 0 1 8 3.12a2.68 2.68 0 0 1 2.4 1.09a4 4 0 0 1 .6 2.12v3.44l.18.31l1.34 2.17z"></path>
</symbol>

<symbol id="icon-notification-filled" viewBox="0 0 1664 1792">
   <path d="M848 1696q0-16-16-16q-59 0-101.5-42.5T688 1536q0-16-16-16t-16 16q0 73 51.5 124.5T832 1712q16 0 16-16zm816-288q0 52-38 90t-90 38h-448q0 106-75 181t-181 75t-181-75t-75-181H128q-52 0-90-38t-38-90q50-42 91-88t85-119.5t74.5-158.5t50-206T320 576q0-152 117-282.5T744 135q-8-19-8-39q0-40 28-68t68-28t68 28t28 68q0 20-8 39q190 28 307 158.5T1344 576q0 139 19.5 260t50 206t74.5 158.5t85 119.5t91 88z"/>
</symbol>

<symbol id="icon-person" viewBox="0 0 24 24">
<path d="M12 12q-1.65 0-2.825-1.175Q8 9.65 8 8q0-1.65 1.175-2.825Q10.35 4 12 4q1.65 0 2.825 1.175Q16 6.35 16 8q0 1.65-1.175 2.825Q13.65 12 12 12Zm6 8H6q-.825 0-1.412-.587Q4 18.825 4 18v-.8q0-.85.438-1.563q.437-.712 1.162-1.087q1.55-.775 3.15-1.163Q10.35 13 12 13t3.25.387q1.6.388 3.15 1.163q.725.375 1.162 1.087Q20 16.35 20 17.2v.8q0 .825-.587 1.413Q18.825 20 18 20ZM6 18h12v-.8q0-.275-.137-.5q-.138-.225-.363-.35q-1.35-.675-2.725-1.013Q13.4 15 12 15t-2.775.337Q7.85 15.675 6.5 16.35q-.225.125-.362.35q-.138.225-.138.5Zm6-8q.825 0 1.413-.588Q14 8.825 14 8t-.587-1.412Q12.825 6 12 6q-.825 0-1.412.588Q10 7.175 10 8t.588 1.412Q11.175 10 12 10Zm0-2Zm0 10Z"></path>
</symbol>

<symbol id="icon-chat" viewBox="0 0 24 24">
  <path fill="none" stroke="currentColor" stroke-linecap="round" stroke-linejoin="round" stroke-width="2" d="M8 12h.01M12 12h.01M16 12h.01M21 12c0 4.418-4.03 8-9 8a9.863 9.863 0 0 1-4.255-.949L3 20l1.395-3.72C3.512 15.042 3 13.574 3 12c0-4.418 4.03-8 9-8s9 3.582 9 8Z">
</path>
</symbol>

<symbol id="icon-chat-filled" viewBox="0 0 24 24">
   <path  d="M12 3c5.5 0 10 3.58 10 8s-4.5 8-10 8c-1.24 0-2.43-.18-3.53-.5C5.55 21 2 21 2 21c2.33-2.33 2.7-3.9 2.75-4.5C3.05 15.07 2 13.13 2 11c0-4.42 4.5-8 10-8Z"/>
</symbol>

<symbol id="icon-new-message" viewBox="0 0 20 20">
   <path  d="M18.174 1.826c-1.102-1.102-2.082-.777-2.082-.777L7.453 9.681L6 14l4.317-1.454l8.634-8.638s.324-.98-.777-2.082zm-7.569 9.779l-.471.47l-1.473.5a2.216 2.216 0 0 0-.498-.74a2.226 2.226 0 0 0-.74-.498l.5-1.473l.471-.47s.776-.089 1.537.673c.762.761.674 1.538.674 1.538zM16 17H3V4h5l2-2H3c-1.1 0-2 .9-2 2v13c0 1.1.9 2 2 2h13c1.1 0 2-.9 2-2v-7l-2 2v5z"/>
</symbol>

<symbol id="icon-video-call" viewBox="0 0 48 48">     
     <path  d="M8 12h22c2.2 0 4 1.8 4 4v16c0 2.2-1.8 4-4 4H8c-2.2 0-4-1.8-4-4V16c0-2.2 1.8-4 4-4z"/><path d="m44 35l-10-6V19l10-6z"/>
</symbol>

<symbol id="icon-audio-call" viewBox="0 0 24 24">
   <path  d="m19.23 15.26l-2.54-.29a1.99 1.99 0 0 0-1.64.57l-1.84 1.84a15.045 15.045 0 0 1-6.59-6.59l1.85-1.85c.43-.43.64-1.03.57-1.64l-.29-2.52a2.001 2.001 0 0 0-1.99-1.77H5.03c-1.13 0-2.07.94-2 2.07c.53 8.54 7.36 15.36 15.89 15.89c1.13.07 2.07-.87 2.07-2v-1.73c.01-1.01-.75-1.86-1.76-1.98z"/>
</symbol>
<symbol id="icon-feedback" viewBox="0 0 24 24">
  <path  d="M20 2H4c-1.1 0-1.99.9-1.99 2L2 22l4-4h14c1.1 0 2-.9 2-2V4c0-1.1-.9-2-2-2m-7 12h-2v-2h2zm0-4h-2V6h2z"/>
</symbol>

<symbol id="icon-payment" viewBox="0 0 48 48">
  <path  d="M10.25 9A6.25 6.25 0 0 0 4 15.25v3.25h40v-3.25A6.25 6.25 0 0 0 37.75 9zM4 32.75V21h40v11.75A6.25 6.25 0 0 1 37.75 39h-27.5A6.25 6.25 0 0 1 4 32.75m27.25-3.25a1.25 1.25 0 1 0 0 2.5h5.5a1.25 1.25 0 1 0 0-2.5z"/>
</symbol>

<symbol id="icon-booking" viewBox="0 0 24 24">
     <g fill="none" stroke="currentColor" stroke-linecap="round" stroke-linejoin="round" stroke-width="2">
        <path d="M4 18V8.5A4.5 4.5 0 0 1 8.5 4h7A4.5 4.5 0 0 1 20 8.5v7a4.5 4.5 0 0 1-4.5 4.5H6a2 2 0 0 1-2-2z"/>
        <path d="M8 12h3.5a2 2 0 1 1 0 4H8V9a1 1 0 0 1 1-1h1.5a2 2 0 1 1 0 4H9m7 4h.01"/>
    </g>
</symbol>

<symbol id="icon-menu" viewBox="0 0 16 16">
     <path fill="currentColor" d="M.5 7.42h15v1.25H.5zm0 3.6h15v1.25H.5zm0-7.29h15v1.25H.5z"/>
</symbol>

<symbol id="icon-person-circle" viewBox="0 0 26 26">
   <g><path fill-rule="evenodd" d="M9 9a4 4 0 1 0 8 0a4 4 0 0 0-8 0Zm6 0a2 2 0 1 1-4 0a2 2 0 0 1 4 0Z" clip-rule="evenodd"/><path d="M20 21a1 1 0 1 1-2 0v-2.5c0-2.494-2.206-4.5-4.984-4.5C10.23 14 8 16.013 8 18.5l.002 2.5a1 1 0 1 1-2 0L6 18.5c0-3.64 3.169-6.5 7.016-6.5C16.86 12 20 14.857 20 18.5V21Z"/><path fill-rule="evenodd" d="M13 24c6.075 0 11-4.925 11-11S19.075 2 13 2S2 6.925 2 13s4.925 11 11 11Zm0 2c7.18 0 13-5.82 13-13S20.18 0 13 0S0 5.82 0 13s5.82 13 13 13Z" clip-rule="evenodd"/></g>
</symbol>

<symbol id="icon-account"  viewBox="0 0 24 24">
  <g fill="none" stroke="currentColor" stroke-width="2">
        <circle cx="12" cy="7" r="5"/>
        <path stroke-linecap="round" stroke-linejoin="round" d="M17 14h.352a3 3 0 0 1 2.976 2.628l.391 3.124A2 2 0 0 1 18.734 22H5.266a2 2 0 0 1-1.985-2.248l.39-3.124A3 3 0 0 1 6.649 14H7"/>
  </g>
</symbol>

<symbol id="icon-person-small"  viewBox="0 0 20 20">
  <g fill="none" stroke="currentColor" stroke-linecap="round"><circle cx="9.5" cy="5.5" r="3"/>
    <path d="M15 16.5v-2c0-3.098-2.495-6-5.5-6c-3.006 0-5.5 2.902-5.5 6v2"/>
  </g>
</symbol>


<symbol id="icon-person-filled"   viewBox="0 0 24 24">
  <path d="M12 12q-1.65 0-2.825-1.175T8 8q0-1.65 1.175-2.825T12 4q1.65 0 2.825 1.175T16 8q0 1.65-1.175 2.825T12 12Zm-8 8v-2.8q0-.85.438-1.563T5.6 14.55q1.55-.775 3.15-1.163T12 13q1.65 0 3.25.388t3.15 1.162q.725.375 1.163 1.088T20 17.2V20H4Z"/>
</symbol>

<symbol id="icon-sign-out-circle"  viewBox="0 0 1024 1024">
   <path d="M868 732h-70.3c-4.8 0-9.3 2.1-12.3 5.8c-7 8.5-14.5 16.7-22.4 24.5a353.84 353.84 0 0 1-112.7 75.9A352.8 352.8 0 0 1 512.4 866c-47.9 0-94.3-9.4-137.9-27.8a353.84 353.84 0 0 1-112.7-75.9a353.28 353.28 0 0 1-76-112.5C167.3 606.2 158 559.9 158 512s9.4-94.2 27.8-137.8c17.8-42.1 43.4-80 76-112.5s70.5-58.1 112.7-75.9c43.6-18.4 90-27.8 137.9-27.8c47.9 0 94.3 9.3 137.9 27.8c42.2 17.8 80.1 43.4 112.7 75.9c7.9 7.9 15.3 16.1 22.4 24.5c3 3.7 7.6 5.8 12.3 5.8H868c6.3 0 10.2-7 6.7-12.3C798 160.5 663.8 81.6 511.3 82C271.7 82.6 79.6 277.1 82 516.4C84.4 751.9 276.2 942 512.4 942c152.1 0 285.7-78.8 362.3-197.7c3.4-5.3-.4-12.3-6.7-12.3zm88.9-226.3L815 393.7c-5.3-4.2-13-.4-13 6.3v76H488c-4.4 0-8 3.6-8 8v56c0 4.4 3.6 8 8 8h314v76c0 6.7 7.8 10.5 13 6.3l141.9-112a8 8 0 0 0 0-12.6z"/>
</symbol>

<symbol id="icon-sign-out-rectangle"  viewBox="0 0 24 24">
     <path  d="M14.08 15.59L16.67 13H7v-2h9.67l-2.59-2.59L15.5 7l5 5l-5 5l-1.42-1.41M19 3a2 2 0 0 1 2 2v4.67l-2-2V5H5v14h14v-2.67l2-2V19a2 2 0 0 1-2 2H5a2 2 0 0 1-2-2V5c0-1.11.89-2 2-2h14Z"/>
</symbol>

<symbol id="icon-chevron-left"  viewBox="0 0 21 21">
   <path fill="none"  stroke="currentColor" stroke-linecap="round" stroke-linejoin="round" d="m11.5 14.5l-4-4l4-4"/>
</symbol>

<symbol id="icon-chevron-down"  viewBox="0 0 24 24">
  <path  d="M5.22 8.22a.749.749 0 0 0 0 1.06l6.25 6.25a.749.749 0 0 0 1.06 0l6.25-6.25a.749.749 0 1 0-1.06-1.06L12 13.939L6.28 8.22a.749.749 0 0 0-1.06 0Z"/>
</symbol>

<symbol id="icon-chevron-up"  viewBox="0 0 24 24">
   <path d="M18.78 15.78a.749.749 0 0 1-1.06 0L12 10.061L6.28 15.78a.749.749 0 1 1-1.06-1.06l6.25-6.25a.749.749 0 0 1 1.06 0l6.25 6.25a.749.749 0 0 1 0 1.06Z"/>
</symbol>

<symbol id="icon-calendar"  viewBox="0 0 24 24">
  <path d="M12 12h5v5h-5v-5m7-9h-1V1h-2v2H8V1H6v2H5c-1.1 0-2 .9-2 2v14c0 1.1.9 2 2 2h14c1.1 0 2-.9 2-2V5c0-1.1-.9-2-2-2m0 2v2H5V5h14M5 19V9h14v10H5Z"/>
</symbol>

<symbol id="icon-dot"  viewBox="0 0 48 48">
   <path  stroke-width="4" d="M24 33C28.9706 33 33 28.9706 33 24C33 19.0294 28.9706 15 24 15C19.0294 15 15 19.0294 15 24C15 28.9706 19.0294 33 24 33Z"/>
</symbol>

<symbol id="icon-dots-y"  viewBox="0 0 24 24">
  <path d="M12 10c-1.1 0-2 .9-2 2s.9 2 2 2s2-.9 2-2s-.9-2-2-2zm0-6c-1.1 0-2 .9-2 2s.9 2 2 2s2-.9 2-2s-.9-2-2-2zm0 12c-1.1 0-2 .9-2 2s.9 2 2 2s2-.9 2-2s-.9-2-2-2z"/>
</symbol >

<symbol id="icon-bullet"  viewBox="0 0 16 16">
  <path d="M4 8a4 4 0 1 1 8 0a4 4 0 0 1-8 0Zm4-2.5a2.5 2.5 0 1 0 0 5a2.5 2.5 0 0 0 0-5Z"/>
</symbol>

<symbol id="icon-email"  viewBox="0 0 24 24">
   <path d="M22 6c0-1.1-.9-2-2-2H4c-1.1 0-2 .9-2 2v12c0 1.1.9 2 2 2h16c1.1 0 2-.9 2-2V6zm-2 0l-8 5l-8-5h16zm0 12H4V8l8 5l8-5v10z"/>
</symbol>

<symbol id="icon-email-small"  viewBox="0 0 24 24">
    <path  d="M5 5h13a3 3 0 0 1 3 3v9a3 3 0 0 1-3 3H5a3 3 0 0 1-3-3V8a3 3 0 0 1 3-3m0 1c-.5 0-.94.17-1.28.47l7.78 5.03l7.78-5.03C18.94 6.17 18.5 6 18 6H5m6.5 6.71L3.13 7.28C3.05 7.5 3 7.75 3 8v9a2 2 0 0 0 2 2h13a2 2 0 0 0 2-2V8c0-.25-.05-.5-.13-.72l-8.37 5.43Z"/>
</symbol>

<symbol id="icon-password"  viewBox="0 0 24 24">
  <path d="M12 17a2 2 0 0 1-2-2c0-1.11.89-2 2-2a2 2 0 0 1 2 2a2 2 0 0 1-2 2m6 3V10H6v10h12m0-12a2 2 0 0 1 2 2v10a2 2 0 0 1-2 2H6a2 2 0 0 1-2-2V10c0-1.11.89-2 2-2h1V6a5 5 0 0 1 5-5a5 5 0 0 1 5 5v2h1m-6-5a3 3 0 0 0-3 3v2h6V6a3 3 0 0 0-3-3Z"/>
</symbol>

<symbol id="icon-password-small"  viewBox="0 0 48 48">
   <path   stroke-linecap="round" stroke-linejoin="round" d="M24 25.28a3.26 3.26 0 0 0-1.64 6.07V36h3.32v-4.65a3.28 3.28 0 0 0 1.61-2.8v0A3.27 3.27 0 0 0 24 25.28Z"/><rect width="33.23" height="25.73" x="7.38" y="17.77" fill="none" stroke="currentColor" stroke-linecap="round" stroke-linejoin="round" rx="4.32"/><path fill="none" stroke="currentColor" stroke-linecap="round" stroke-linejoin="round" d="M13.35 17.77v-2.61a10.66 10.66 0 0 1 21.32 0v2.61"/>
</symbol>

<symbol id="icon-global-small" viewBox="0 0 256 256">
    <path d="M128 28a100 100 0 1 0 100 100A100.11 100.11 0 0 0 128 28Zm87.64 128h-46.15a157.43 157.43 0 0 0 0-56h46.15a92.09 92.09 0 0 1 0 56ZM128 220a3.76 3.76 0 0 1-2.78-1.23c-13.65-14.7-23.52-33.72-28.81-54.77h63.18c-5.29 21.05-15.16 40.07-28.81 54.77A3.76 3.76 0 0 1 128 220Zm-33.35-64a149.25 149.25 0 0 1 0-56h66.7a149.25 149.25 0 0 1 0 56ZM128 36a3.76 3.76 0 0 1 2.78 1.23C144.43 51.93 154.3 71 159.59 92H96.41c5.29-21 15.16-40.07 28.81-54.77A3.76 3.76 0 0 1 128 36Zm84.66 56h-44.85c-4.91-20.73-14-39.72-26.66-55.06A92.3 92.3 0 0 1 212.66 92Zm-97.81-55.06C102.22 52.28 93.1 71.27 88.19 92H43.34a92.3 92.3 0 0 1 71.51-55.06ZM40.36 100h46.15a157.43 157.43 0 0 0 0 56H40.36a92.09 92.09 0 0 1 0-56Zm3 64h44.83c4.91 20.73 14 39.72 26.66 55.06A92.3 92.3 0 0 1 43.34 164Zm97.81 55.06c12.63-15.34 21.75-34.33 26.66-55.06h44.85a92.3 92.3 0 0 1-71.53 55.06Z"/>
</symbol>

<symbol id="icon-star" viewBox="0 0 16 16">
   <path d="M3.612 15.443c-.386.198-.824-.149-.746-.592l.83-4.73L.173 6.765c-.329-.314-.158-.888.283-.95l4.898-.696L7.538.792c.197-.39.73-.39.927 0l2.184 4.327l4.898.696c.441.062.612.636.282.95l-3.522 3.356l.83 4.73c.078.443-.36.79-.746.592L8 13.187l-4.389 2.256z"/>
</symbol>

<symbol id="icon-call" viewBox="0 0 24 24">
   <path d="M19.95 21q-3.125 0-6.175-1.363t-5.55-3.862q-2.5-2.5-3.862-5.55T3 4.05q0-.45.3-.75t.75-.3H8.1q.35 0 .625.238t.325.562l.65 3.5q.05.4-.025.675T9.4 8.45L6.975 10.9q.5.925 1.187 1.787t1.513 1.663q.775.775 1.625 1.438T13.1 17l2.35-2.35q.225-.225.588-.338t.712-.062l3.45.7q.35.1.575.363T21 15.9v4.05q0 .45-.3.75t-.75.3ZM6.025 9l1.65-1.65L7.25 5H5.025q.125 1.025.35 2.025T6.025 9Zm8.95 8.95q.975.425 1.988.675T19 18.95v-2.2l-2.35-.475l-1.675 1.675ZM6.025 9Zm8.95 8.95Z"/>
</symbol>

<symbol id="icon-eyeclosed" viewBox="0 0 16 16">
  <path  d="M8 11c-1.65 0-3-1.35-3-3s1.35-3 3-3s3 1.35 3 3s-1.35 3-3 3Zm0-5c-1.1 0-2 .9-2 2s.9 2 2 2s2-.9 2-2s-.9-2-2-2Z"/>
  <path  d="M8 13c-3.19 0-5.99-1.94-6.97-4.84a.442.442 0 0 1 0-.32C2.01 4.95 4.82 3 8 3s5.99 1.94 6.97 4.84c.04.1.04.22 0 .32C13.99 11.05 11.18 13 8 13ZM2.03 8c.89 2.4 3.27 4 5.97 4s5.07-1.6 5.97-4C13.08 5.6 10.7 4 8 4S2.93 5.6 2.03 8Z"/>
  <path  d="M14 14.5a.47.47 0 0 1-.35-.15l-12-12c-.2-.2-.2-.51 0-.71c.2-.2.51-.2.71 0l11.99 12.01c.2.2.2.51 0 .71c-.1.1-.23.15-.35.15Z"/>
</symbol>

<symbol id="icon-eye" viewBox="0 0 256 256">
  <path d="M247.31 124.76c-.35-.79-8.82-19.58-27.65-38.41C194.57 61.26 162.88 48 128 48S61.43 61.26 36.34 86.35C17.51 105.18 9 124 8.69 124.76a8 8 0 0 0 0 6.5c.35.79 8.82 19.57 27.65 38.4C61.43 194.74 93.12 208 128 208s66.57-13.26 91.66-38.34c18.83-18.83 27.3-37.61 27.65-38.4a8 8 0 0 0 0-6.5ZM128 192c-30.78 0-57.67-11.19-79.93-33.25A133.47 133.47 0 0 1 25 128a133.33 133.33 0 0 1 23.07-30.75C70.33 75.19 97.22 64 128 64s57.67 11.19 79.93 33.25A133.46 133.46 0 0 1 231.05 128c-7.21 13.46-38.62 64-103.05 64Zm0-112a48 48 0 1 0 48 48a48.05 48.05 0 0 0-48-48Zm0 80a32 32 0 1 1 32-32a32 32 0 0 1-32 32Z"/>
</symbol>
<symbol id="icon-edit" viewBox="0 0 24 24">
  <g ><path stroke="currentColor" stroke-linecap="round" stroke-linejoin="round" stroke-width="2" d="m5 16l-1 4l4-1L19.586 7.414a2 2 0 0 0 0-2.828l-.172-.172a2 2 0 0 0-2.828 0L5 16Z"/><path fill="currentColor" d="m5 16l-1 4l4-1L18 9l-3-3L5 16Z"/><path stroke="currentColor" stroke-linecap="round" stroke-linejoin="round" stroke-width="2" d="m15 6l3 3m-5 11h8"/></g>
</symbol>

<symbol id="icon-eye-filled" viewBox="0 0 512 512">
  <circle cx="256" cy="256" r="64" fill="currentColor"/><path fill="currentColor" d="M490.84 238.6c-26.46-40.92-60.79-75.68-99.27-100.53C349 110.55 302 96 255.66 96c-42.52 0-84.33 12.15-124.27 36.11c-40.73 24.43-77.63 60.12-109.68 106.07a31.92 31.92 0 0 0-.64 35.54c26.41 41.33 60.4 76.14 98.28 100.65C162 402 207.9 416 255.66 416c46.71 0 93.81-14.43 136.2-41.72c38.46-24.77 72.72-59.66 99.08-100.92a32.2 32.2 0 0 0-.1-34.76ZM256 352a96 96 0 1 1 96-96a96.11 96.11 0 0 1-96 96Z"/>
</symbol>

<symbol id="icon-download" viewBox="0 0 16 16">
  <path d="M3.5 13h9a.75.75 0 0 1 .102 1.493l-.102.007h-9a.75.75 0 0 1-.102-1.493L3.5 13h9h-9ZM7.898 1.007L8 1a.75.75 0 0 1 .743.648l.007.102v7.688l2.255-2.254a.75.75 0 0 1 .977-.072l.084.072a.75.75 0 0 1 .072.977l-.072.084L8.53 11.78a.75.75 0 0 1-.976.073l-.084-.073l-3.536-3.535a.75.75 0 0 1 .977-1.133l.084.072L7.25 9.44V1.75a.75.75 0 0 1 .648-.743L8 1l-.102.007Z"/>
</symbol>

<symbol id="icon-settings" viewBox="0 0 24 24">
  <path d="m9.25 22l-.4-3.2q-.325-.125-.613-.3t-.562-.375L4.7 19.375l-2.75-4.75l2.575-1.95Q4.5 12.5 4.5 12.337v-.674q0-.163.025-.338L1.95 9.375l2.75-4.75l2.975 1.25q.275-.2.575-.375t.6-.3l.4-3.2h5.5l.4 3.2q.325.125.613.3t.562.375l2.975-1.25l2.75 4.75l-2.575 1.95q.025.175.025.338v.674q0 .163-.05.338l2.575 1.95l-2.75 4.75l-2.95-1.25q-.275.2-.575.375t-.6.3l-.4 3.2h-5.5Zm2.8-6.5q1.45 0 2.475-1.025T15.55 12q0-1.45-1.025-2.475T12.05 8.5q-1.475 0-2.488 1.025T8.55 12q0 1.45 1.012 2.475T12.05 15.5Z"/>
</symbol>

<symbol id="icon-bookmark" viewBox="0 0 24 24">
   <path d="M16 2H8a3 3 0 0 0-3 3v16a1 1 0 0 0 .5.87a1 1 0 0 0 1 0l5.5-3.18l5.5 3.18a1 1 0 0 0 .5.13a1 1 0 0 0 .5-.13A1 1 0 0 0 19 21V5a3 3 0 0 0-3-3Zm1 17.27l-4.5-2.6a1 1 0 0 0-1 0L7 19.27V5a1 1 0 0 1 1-1h8a1 1 0 0 1 1 1Z"/>
</symbol>


<symbol id="icon-bookmark-filled" viewBox="0 0 24 24">
   <path  d="M8 2a3 3 0 0 0-3 3v16a1 1 0 0 0 1.447.894L12 19.118l5.553 2.776A1 1 0 0 0 19 21V5a3 3 0 0 0-3-3H8Z" clip-rule="evenodd"/>
</symbol>

<symbol id="icon-shop" viewBox="0 0 48 48">
  <path fill="#CFD8DC" d="M5 19h38v19H5z"/><path fill="#B0BEC5" d="M5 38h38v4H5z"/><path fill="#455A64" d="M27 24h12v18H27z"/><path fill="#E3F2FD" d="M9 24h14v11H9z"/><path fill="#1E88E5" d="M10 25h12v9H10z"/><path fill="#90A4AE" d="M36.5 33.5c-.3 0-.5.2-.5.5v2c0 .3.2.5.5.5s.5-.2.5-.5v-2c0-.3-.2-.5-.5-.5z"/><g fill="#558B2F"><circle cx="24" cy="19" r="3"/><circle cx="36" cy="19" r="3"/><circle cx="12" cy="19" r="3"/></g><path fill="#7CB342" d="M40 6H8c-1.1 0-2 .9-2 2v3h36V8c0-1.1-.9-2-2-2zm-19 5h6v8h-6zm16 0h-5l1 8h6zm-26 0h5l-1 8H9z"/><g fill="#FFA000"><circle cx="30" cy="19" r="3"/><path d="M45 19c0 1.7-1.3 3-3 3s-3-1.3-3-3s1.3-3 3-3l3 3z"/><circle cx="18" cy="19" r="3"/><path d="M3 19c0 1.7 1.3 3 3 3s3-1.3 3-3s-1.3-3-3-3l-3 3z"/></g><path fill="#FFC107" d="M32 11h-5v8h6zm10 0h-5l2 8h6zm-26 0h5v8h-6zM6 11h5l-2 8H3z"/>
</symbol>

<symbol id="icon-register" viewBox="0 0 24 24">
  <path d="M15 4a4 4 0 0 0-4 4a4 4 0 0 0 4 4a4 4 0 0 0 4-4a4 4 0 0 0-4-4m0 1.9a2.1 2.1 0 1 1 0 4.2A2.1 2.1 0 0 1 12.9 8A2.1 2.1 0 0 1 15 5.9M4 7v3H1v2h3v3h2v-3h3v-2H6V7H4m11 6c-2.67 0-8 1.33-8 4v3h16v-3c0-2.67-5.33-4-8-4m0 1.9c2.97 0 6.1 1.46 6.1 2.1v1.1H8.9V17c0-.64 3.1-2.1 6.1-2.1Z"/>
</symbol>

<symbol id="icon-login" viewBox="0 0 24 24">
  <path d="M10 11V8l5 4l-5 4v-3H1v-2h9zm-7.542 4h2.124A8.003 8.003 0 0 0 20 12A8 8 0 0 0 4.582 9H2.458C3.732 4.943 7.522 2 12 2c5.523 0 10 4.477 10 10s-4.477 10-10 10c-4.478 0-8.268-2.943-9.542-7z"/>
</symbol>

<symbol id="icon-plus" viewBox="0 0 16 16">
  <path  d="M7.75 2a.75.75 0 0 1 .75.75V7h4.25a.75.75 0 0 1 0 1.5H8.5v4.25a.75.75 0 0 1-1.5 0V8.5H2.75a.75.75 0 0 1 0-1.5H7V2.75A.75.75 0 0 1 7.75 2Z"/>
</symbol>

<symbol id="icon-plus-small" viewBox="0 0 24 24">
 <path  d="M11.75 4.5a.75.75 0 0 1 .75.75V11h5.75a.75.75 0 0 1 0 1.5H12.5v5.75a.75.75 0 0 1-1.5 0V12.5H5.25a.75.75 0 0 1 0-1.5H11V5.25a.75.75 0 0 1 .75-.75Z"/>
</symbol>

<symbol id="icon-upload" viewBox="0 0 24 24">
  <path fill="none" stroke="currentColor" stroke-linecap="round" stroke-linejoin="round" stroke-width="2.5" d="m17 9l-5-5m0 0L7 9m5-5v13m-6 3h12"/>
</symbol>

<symbol id="icon-send" viewBox="0 0 24 24">
  <path d="M3 20V4l19 8l-19 8Zm2-3l11.85-5L5 7v3.5l6 1.5l-6 1.5V17Zm0 0V7v10Z"/>
</symbol>

<symbol id="icon-clock" viewBox="0 0 24 24">
  <path d="M15.098 12.634L13 11.423V7a1 1 0 0 0-2 0v5a1 1 0 0 0 .5.866l2.598 1.5a1 1 0 1 0 1-1.732ZM12 2a10 10 0 1 0 10 10A10.011 10.011 0 0 0 12 2Zm0 18a8 8 0 1 1 8-8a8.01 8.01 0 0 1-8 8Z"/>
</symbol>

<symbol id="icon-instagram" viewBox="0 0 24 24">
   <path  d="M7.8 2h8.4C19.4 2 22 4.6 22 7.8v8.4a5.8 5.8 0 0 1-5.8 5.8H7.8C4.6 22 2 19.4 2 16.2V7.8A5.8 5.8 0 0 1 7.8 2m-.2 2A3.6 3.6 0 0 0 4 7.6v8.8C4 18.39 5.61 20 7.6 20h8.8a3.6 3.6 0 0 0 3.6-3.6V7.6C20 5.61 18.39 4 16.4 4H7.6m9.65 1.5a1.25 1.25 0 0 1 1.25 1.25A1.25 1.25 0 0 1 17.25 8A1.25 1.25 0 0 1 16 6.75a1.25 1.25 0 0 1 1.25-1.25M12 7a5 5 0 0 1 5 5a5 5 0 0 1-5 5a5 5 0 0 1-5-5a5 5 0 0 1 5-5m0 2a3 3 0 0 0-3 3a3 3 0 0 0 3 3a3 3 0 0 0 3-3a3 3 0 0 0-3-3Z"/>
</symbol>

<symbol id="icon-twitter" viewBox="0 0 24 24">
    <path  d="M22.46 6c-.77.35-1.6.58-2.46.69c.88-.53 1.56-1.37 1.88-2.38c-.83.5-1.75.85-2.72 1.05C18.37 4.5 17.26 4 16 4c-2.35 0-4.27 1.92-4.27 4.29c0 .34.04.67.11.98C8.28 9.09 5.11 7.38 3 4.79c-.37.63-.58 1.37-.58 2.15c0 1.49.75 2.81 1.91 3.56c-.71 0-1.37-.2-1.95-.5v.03c0 2.08 1.48 3.82 3.44 4.21a4.22 4.22 0 0 1-1.93.07a4.28 4.28 0 0 0 4 2.98a8.521 8.521 0 0 1-5.33 1.84c-.34 0-.68-.02-1.02-.06C3.44 20.29 5.7 21 8.12 21C16 21 20.33 14.46 20.33 8.79c0-.19 0-.37-.01-.56c.84-.6 1.56-1.36 2.14-2.23Z"/>
</symbol>

<symbol id="icon-youtube" viewBox="0 0 24 24">
   <path d="m10 15l5.19-3L10 9v6m11.56-7.83c.13.47.22 1.1.28 1.9c.07.8.1 1.49.1 2.09L22 12c0 2.19-.16 3.8-.44 4.83c-.25.9-.83 1.48-1.73 1.73c-.47.13-1.33.22-2.65.28c-1.3.07-2.49.1-3.59.1L12 19c-4.19 0-6.8-.16-7.83-.44c-.9-.25-1.48-.83-1.73-1.73c-.13-.47-.22-1.1-.28-1.9c-.07-.8-.1-1.49-.1-2.09L2 12c0-2.19.16-3.8.44-4.83c.25-.9.83-1.48 1.73-1.73c.47-.13 1.33-.22 2.65-.28c1.3-.07 2.49-.1 3.59-.1L12 5c4.19 0 6.8.16 7.83.44c.9.25 1.48.83 1.73 1.73Z"/>
</symbol>

<symbol id="icon-linkedin" viewBox="0 0 24 24">
  <path d="M19 3a2 2 0 0 1 2 2v14a2 2 0 0 1-2 2H5a2 2 0 0 1-2-2V5a2 2 0 0 1 2-2h14m-.5 15.5v-5.3a3.26 3.26 0 0 0-3.26-3.26c-.85 0-1.84.52-2.32 1.3v-1.11h-2.79v8.37h2.79v-4.93c0-.77.62-1.4 1.39-1.4a1.4 1.4 0 0 1 1.4 1.4v4.93h2.79M6.88 8.56a1.68 1.68 0 0 0 1.68-1.68c0-.93-.75-1.69-1.68-1.69a1.69 1.69 0 0 0-1.69 1.69c0 .93.76 1.68 1.69 1.68m1.39 9.94v-8.37H5.5v8.37h2.77Z"/>
</symbol>

<symbol id="icon-facebook" viewBox="0 0 24 24">
   <path d="M22 12c0-5.52-4.48-10-10-10S2 6.48 2 12c0 4.84 3.44 8.87 8 9.8V15H8v-3h2V9.5C10 7.57 11.57 6 13.5 6H16v3h-2c-.55 0-1 .45-1 1v2h3v3h-3v6.95c5.05-.5 9-4.76 9-9.95z"/>
</symbol>

<symbol id="icon-whatsapp" viewBox="0 0 24 24">
   <path d="M19.05 4.91A9.816 9.816 0 0 0 12.04 2c-5.46 0-9.91 4.45-9.91 9.91c0 1.75.46 3.45 1.32 4.95L2.05 22l5.25-1.38c1.45.79 3.08 1.21 4.74 1.21c5.46 0 9.91-4.45 9.91-9.91c0-2.65-1.03-5.14-2.9-7.01zm-7.01 15.24c-1.48 0-2.93-.4-4.2-1.15l-.3-.18l-3.12.82l.83-3.04l-.2-.31a8.264 8.264 0 0 1-1.26-4.38c0-4.54 3.7-8.24 8.24-8.24c2.2 0 4.27.86 5.82 2.42a8.183 8.183 0 0 1 2.41 5.83c.02 4.54-3.68 8.23-8.22 8.23zm4.52-6.16c-.25-.12-1.47-.72-1.69-.81c-.23-.08-.39-.12-.56.12c-.17.25-.64.81-.78.97c-.14.17-.29.19-.54.06c-.25-.12-1.05-.39-1.99-1.23c-.74-.66-1.23-1.47-1.38-1.72c-.14-.25-.02-.38.11-.51c.11-.11.25-.29.37-.43s.17-.25.25-.41c.08-.17.04-.31-.02-.43s-.56-1.34-.76-1.84c-.2-.48-.41-.42-.56-.43h-.48c-.17 0-.43.06-.66.31c-.22.25-.86.85-.86 2.07c0 1.22.89 2.4 1.01 2.56c.12.17 1.75 2.67 4.23 3.74c.59.26 1.05.41 1.41.52c.59.19 1.13.16 1.56.1c.48-.07 1.47-.6 1.67-1.18c.21-.58.21-1.07.14-1.18s-.22-.16-.47-.28z"/>
</symbol>

<symbol id="icon-location" viewBox="0 0 16 16">
    <path  fill-rule="evenodd" d="M12.5 6a4.47 4.47 0 0 1-.883 2.677L8 13.5L4.383 8.677A4.5 4.5 0 1 1 12.5 6ZM14 6c0 1.34-.439 2.576-1.18 3.574L8.937 14.75L8 16l-.938-1.25L3.18 9.574A6 6 0 1 1 14 6ZM8 8a2 2 0 1 0 0-4a2 2 0 0 0 0 4Z" clip-rule="evenodd"/>
</symbol>
<symbol id="icon-vehicle" viewBox="0 0 24 24">
    <path  d="M18 18.5c.83 0 1.5-.67 1.5-1.5s-.67-1.5-1.5-1.5s-1.5.67-1.5 1.5s.67 1.5 1.5 1.5m1.5-9H17V12h4.46L19.5 9.5M6 18.5c.83 0 1.5-.67 1.5-1.5s-.67-1.5-1.5-1.5s-1.5.67-1.5 1.5s.67 1.5 1.5 1.5M20 8l3 4v5h-2c0 1.66-1.34 3-3 3s-3-1.34-3-3H9c0 1.66-1.34 3-3 3s-3-1.34-3-3H1V6c0-1.11.89-2 2-2h14v4h3M3 6v9h.76c.55-.61 1.35-1 2.24-1c.89 0 1.69.39 2.24 1H15V6H3m7 1l3.5 3.5L10 14v-2.5H5v-2h5V7Z"/>
</symbol>

<symbol id="icon-attach-file" viewBox="0 0 24 24">
   <path d="M11.5 22q-2.3 0-3.9-1.6T6 16.5V6q0-1.65 1.175-2.825T10 2q1.65 0 2.825 1.175T14 6v9.5q0 1.05-.725 1.775T11.5 18q-1.05 0-1.775-.725T9 15.5V6h1.5v9.5q0 .425.288.713t.712.287q.425 0 .713-.288t.287-.712V6q0-1.05-.725-1.775T10 3.5q-1.05 0-1.775.725T7.5 6v10.5q0 1.65 1.175 2.825T11.5 20.5q1.65 0 2.825-1.175T15.5 16.5V6H17v10.5q0 2.3-1.6 3.9T11.5 22Z"/>
</symbol>

<symbol id="icon-document" viewBox="0 0 24 24">
   <path  d="M13 9V3.5L18.5 9M6 2c-1.11 0-2 .89-2 2v16a2 2 0 0 0 2 2h12a2 2 0 0 0 2-2V8l-6-6H6Z"/>
</symbol>

<symbol id="icon-image" viewBox="0 0 24 24">
  <path d="M19.999 4h-16c-1.103 0-2 .897-2 2v12c0 1.103.897 2 2 2h16c1.103 0 2-.897 2-2V6c0-1.103-.897-2-2-2zm-13.5 3a1.5 1.5 0 1 1 0 3a1.5 1.5 0 0 1 0-3zm5.5 10h-7l4-5l1.5 2l3-4l5.5 7h-7z"/>
</symbol>

<symbol id="icon-gif" viewBox="0 0 256 256">
   <path d="M144 72v112a8 8 0 0 1-16 0V72a8 8 0 0 1 16 0Zm80-8h-48a8 8 0 0 0-8 8v112a8 8 0 0 0 16 0v-48h32a8 8 0 0 0 0-16h-32V80h40a8 8 0 0 0 0-16ZM96 120H72a8 8 0 0 0 0 16h16v16a24 24 0 0 1-48 0v-48a24 24 0 0 1 24-24c11.19 0 21.61 7.74 24.25 18a8 8 0 0 0 15.5-4C99.27 76.62 82.56 64 64 64a40 40 0 0 0-40 40v48a40 40 0 0 0 80 0v-24a8 8 0 0 0-8-8Z"/>
</symbol>

<symbol id="icon-emoji" viewBox="0 0 24 24">
   <path d="M12 1.998c5.524 0 10.002 4.478 10.002 10.002c0 5.523-4.479 10-10.002 10c-5.524.001-10.002-4.477-10.002-10C1.998 6.476 6.476 1.998 12 1.998Zm0 1.5a8.502 8.502 0 1 0 0 17.003a8.502 8.502 0 0 0 0-17.003ZM8.462 14.783A4.492 4.492 0 0 0 12 16.5a4.491 4.491 0 0 0 3.535-1.714a.75.75 0 1 1 1.177.93A5.99 5.99 0 0 1 12 18a5.991 5.991 0 0 1-4.717-2.29a.75.75 0 1 1 1.179-.928ZM9 8.75a1.25 1.25 0 1 1 0 2.499A1.25 1.25 0 0 1 9 8.75Zm6 0a1.25 1.25 0 1 1 0 2.499a1.25 1.25 0 0 1 0-2.499Z"/>
</symbol>

<symbol id="icon-arrow-down" viewBox="0 0 24 24">
  <path d="m12 19.164l6.207-6.207l-1.414-1.414L12 16.336l-4.793-4.793l-1.414 1.414L12 19.164Zm0-5.65l6.207-6.207l-1.414-1.414L12 10.686L7.207 5.893L5.793 7.307L12 13.514Z"/>
</symbol>

<symbol id="icon-arrow-up" viewBox="0 0 24 24">
    <g fill="none" fill-rule="evenodd"><path d="M24 0v24H0V0h24ZM12.594 23.258l-.012.002l-.071.035l-.02.004l-.014-.004l-.071-.036c-.01-.003-.019 0-.024.006l-.004.01l-.017.428l.005.02l.01.013l.104.074l.015.004l.012-.004l.104-.074l.012-.016l.004-.017l-.017-.427c-.002-.01-.009-.017-.016-.018Zm.264-.113l-.014.002l-.184.093l-.01.01l-.003.011l.018.43l.005.012l.008.008l.201.092c.012.004.023 0 .029-.008l.004-.014l-.034-.614c-.003-.012-.01-.02-.02-.022Zm-.715.002a.023.023 0 0 0-.027.006l-.006.014l-.034.614c0 .012.007.02.017.024l.015-.002l.201-.093l.01-.008l.003-.011l.018-.43l-.003-.012l-.01-.01l-.184-.092Z"/><path fill="currentColor" d="M12 5a1 1 0 0 1 .707.293l5 5a1 1 0 0 1-1.414 1.414L12 7.414l-4.293 4.293a1 1 0 0 1-1.414-1.414l5-5A1 1 0 0 1 12 5Zm0 6a1 1 0 0 1 .707.293l5 5a1 1 0 0 1-1.414 1.414L12 13.414l-4.293 4.293a1 1 0 0 1-1.414-1.414l5-5A1 1 0 0 1 12 11Z"/>
</symbol>

<symbol id="icon-billing" viewBox="0 0 24 24">
<path d="M20 4H4c-1.11 0-1.99.89-1.99 2L2 18c0 1.11.89 2 2 2h16c1.11 0 2-.89 2-2V6c0-1.11-.89-2-2-2zm0 14H4v-6h16v6zm0-10H4V6h16v2z"/></path>
</symbol>

</defs>
</svg>
